<svg width="10" height="18" viewBox="0 0 10 18" fill="none" xmlns="http://www.w3.org/2000/svg">
<path fill-rule="evenodd" clip-rule="evenodd" d="M0.5 8.10563V5.76C0.5 5.52375 0.696875 5.30438 0.933125 5.30438H2.35063V4.13438C2.35063 1.41187 3.74562 0.0225 6.52437 0C7.4525 0 8.33562 0.118125 9.1625 0.36C9.42125 0.43875 9.51688 0.59625 9.5 0.855L9.185 3.13875C9.1625 3.24 9.10625 3.33563 9.005 3.43688C8.88688 3.49875 8.76875 3.53813 8.65063 3.51562C8.15562 3.375 7.64938 3.31875 7.07563 3.31875C6.28813 3.31875 6.17 3.47625 6.17 4.29187V5.30438H8.7125C8.94875 5.30438 9.16813 5.54063 9.16813 5.79938L8.97125 8.145C8.97125 8.38125 8.77438 8.54437 8.53813 8.54437H6.17V17.5444C6.17 17.7806 5.97312 18 5.73687 18H2.80625C2.57 18 2.35625 17.7806 2.35625 17.5444V8.54437H0.93875C0.822386 8.54437 0.710788 8.49815 0.628507 8.41587C0.546225 8.33359 0.5 8.22199 0.5 8.10563Z" fill="#767676"/>
</svg>
