<svg width="18" height="15" viewBox="0 0 18 15" fill="none" xmlns="http://www.w3.org/2000/svg">
<path fill-rule="evenodd" clip-rule="evenodd" d="M17.4375 2.5775C16.785 2.85313 16.1325 3.03875 15.4406 3.11188C16.1663 2.68437 16.6894 2.06 16.9706 1.21063C16.2881 1.6104 15.5454 1.89723 14.7712 2.06C14.0794 1.34 13.2244 0.96875 12.2344 0.96875C10.3162 0.96875 8.76375 2.50437 8.76375 4.41125C8.76375 4.68687 8.80313 4.94563 8.85938 5.1875C6.08063 5.05813 3.51 3.725 1.73812 1.59875C1.42312 2.13312 1.25437 2.70687 1.25437 3.33687C1.25437 4.50125 1.83375 5.53625 2.80125 6.18313C2.23875 6.16625 1.72125 6.01438 1.215 5.75563V5.795C1.215 7.42063 2.4075 8.84375 3.99375 9.15875C3.63937 9.25437 3.34125 9.28813 3.0825 9.28813C2.91375 9.28813 2.68875 9.27125 2.44687 9.215C2.66425 9.90256 3.09373 10.5036 3.67375 10.9321C4.25377 11.3605 4.95455 11.5943 5.67562 11.6C4.42688 12.5787 2.98688 13.0794 1.36688 13.0794C1.05188 13.0794 0.770625 13.0625 0.5625 13.0231C2.16562 14.0581 3.9375 14.5756 5.85563 14.5756C9.95625 14.5756 13.0725 12.32 14.58 9.34437C15.345 7.84812 15.7163 6.32938 15.7163 4.79375V4.535C15.6994 4.43938 15.6994 4.36625 15.6994 4.34938C16.3785 3.86337 16.9668 3.26171 17.4375 2.57187" fill="#767676"/>
</svg>
