<svg width="19" height="12" viewBox="0 0 19 12" fill="none" xmlns="http://www.w3.org/2000/svg">
<path fill-rule="evenodd" clip-rule="evenodd" d="M18.1133 11.1901L15.5799 11.2276C15.5799 11.2276 15.0337 11.3326 14.3212 10.8526C13.3712 10.2226 12.4766 8.58005 11.7799 8.79755C11.0754 9.01505 11.0991 10.4926 11.0991 10.4926C11.0991 10.4926 11.107 10.8076 10.9408 10.9726C10.7666 11.1601 10.4262 11.1901 10.4262 11.1901H9.29412C9.29412 11.1901 6.79245 11.3401 4.59161 9.11255C2.17703 6.69005 0.0553647 1.88255 0.0553647 1.88255C0.0553647 1.88255 -0.071302 1.56755 0.0632814 1.41005C0.213698 1.24505 0.617448 1.23005 0.617448 1.23005L3.33286 1.21505C3.33286 1.21505 3.5862 1.26005 3.76828 1.38755C3.9187 1.49255 4.00578 1.69505 4.00578 1.69505C4.00578 1.69505 4.4412 2.76755 5.02703 3.74255C6.15911 5.64005 6.68953 6.05255 7.06953 5.85005C7.63162 5.55005 7.46537 3.17255 7.46537 3.17255C7.46537 3.17255 7.47328 2.31005 7.18037 1.92005C6.95078 1.62005 6.52328 1.53005 6.3412 1.50755C6.19078 1.48505 6.4362 1.14005 6.76078 0.99005C7.25162 0.75755 8.11453 0.74255 9.12786 0.75755C9.91953 0.76505 10.1491 0.81005 10.4579 0.88505C11.392 1.10255 11.0754 1.95005 11.0754 3.97505C11.0754 4.62755 10.9566 5.53505 11.4395 5.84255C11.6454 5.97005 12.1599 5.86505 13.4266 3.77255C14.0283 2.78255 14.4795 1.62005 14.4795 1.62005C14.4795 1.62005 14.5824 1.41005 14.7329 1.32005C14.8912 1.23005 15.097 1.25255 15.097 1.25255L17.9549 1.23755C17.9549 1.23755 18.8099 1.14005 18.9524 1.51505C19.1029 1.90505 18.6358 2.82755 17.4641 4.33505C15.5483 6.81005 15.3345 6.57755 16.9258 8.00255C18.4458 9.36755 18.7545 10.0351 18.8099 10.1176C19.4433 11.1301 18.1133 11.2051 18.1133 11.2051V11.1901Z" fill="#767676"/>
</svg>
