<svg width="221" height="96" viewBox="0 0 221 96" fill="none" xmlns="http://www.w3.org/2000/svg">
<path d="M49.2346 59.6341C48.9938 59.0565 48.7131 58.4973 48.446 57.98C48.034 57.1885 47.6142 56.4 47.1868 55.6145L47.1539 55.5535C43.378 48.562 39.4241 41.6416 35.2951 34.7974L35.1193 34.505C34.6961 33.802 34.2578 33.075 33.8088 32.3612C33.284 31.5274 32.7028 30.6441 31.8809 29.8219C30.1101 28.0497 27.665 27.0736 24.9946 27.0736C22.3243 27.0736 19.8787 28.0501 18.107 29.8231C17.286 30.6457 16.7052 31.5282 16.18 32.362C15.7318 33.08 15.291 33.8013 14.8578 34.5259L14.6941 34.7974C10.5653 41.6416 6.6114 48.5618 2.83538 55.5531L2.78178 55.6535C2.36181 56.426 1.94926 57.2013 1.54418 57.9796C1.27662 58.4969 0.995907 59.0553 0.755158 59.6345C0.0512498 61.3267 -0.157525 62.9443 0.116139 64.5783C0.689328 67.9977 3.37189 70.9283 7.11761 72.2265C8.51182 72.7095 10.0026 72.9564 11.507 72.9536C11.9749 72.9536 12.4508 72.9295 12.921 72.8829C14.7233 72.7041 16.5393 72.1799 18.319 71.3244C20.4956 70.2776 22.6459 68.7436 24.9946 66.5513C27.3438 68.7436 29.4941 70.2776 31.6712 71.3244C33.4505 72.1799 35.2664 72.7041 37.0683 72.8829C37.5385 72.9295 38.0148 72.9532 38.4827 72.9532C39.987 72.9561 41.4776 72.7094 42.8716 72.2265C46.6169 70.9287 49.2999 67.9977 49.8736 64.5783C50.1473 62.9447 49.938 61.3275 49.2341 59.6337L49.2346 59.6341ZM24.9951 62.1855C22.0737 59.0163 20.1989 56.0736 19.5411 53.6066C19.2651 52.571 19.2021 51.6195 19.354 50.7784C19.4847 50.0505 19.7771 49.4002 20.2229 48.8443C21.2315 47.5883 23.015 46.8384 24.9956 46.8384C26.9747 46.8384 28.7582 47.5883 29.7668 48.8451C30.213 49.4006 30.5051 50.0513 30.6362 50.7792C30.7876 51.6215 30.7242 52.5731 30.4482 53.6086C29.7894 56.0752 27.9151 59.0171 24.9946 62.1855H24.9951ZM46.5765 64.3345C46.3754 65.5183 45.8158 66.6367 44.9531 67.579C44.0904 68.5213 42.9546 69.2548 41.658 69.7068C40.3673 70.1543 38.9562 70.3118 37.522 70.17C36.1495 70.0334 34.7986 69.639 33.3922 68.9629C31.4455 68.027 29.4748 66.5899 27.2568 64.4815C30.7872 60.756 32.992 57.322 33.8083 54.2633C34.1816 52.8651 34.2606 51.5424 34.0434 50.3317C33.8327 49.1637 33.3503 48.1032 32.6093 47.1802C30.9583 45.1224 28.1117 43.8937 24.9942 43.8937C21.8781 43.8937 19.0319 45.122 17.3805 47.1794C16.6394 48.1024 16.1574 49.1628 15.9473 50.3305C15.7291 51.5396 15.8076 52.8619 16.1805 54.2605C16.9963 57.3204 19.2011 60.7551 22.7324 64.4819C20.5149 66.5899 18.5442 68.0266 16.5971 68.9629C15.1912 69.639 13.8402 70.0338 12.4677 70.17C11.034 70.3118 9.62196 70.1543 8.33123 69.7068C7.03455 69.2549 5.89859 68.5214 5.03589 67.579C4.17319 66.6366 3.61369 65.518 3.4128 64.3341C3.21625 63.16 3.36813 62.0276 3.89148 60.7704C4.08426 60.3069 4.3095 59.8522 4.5888 59.3115C4.98378 58.5471 5.40321 57.7699 5.80901 57.0184L5.86355 56.9176C9.63596 49.9328 13.5861 43.019 17.711 36.1812L17.8756 35.9072C18.3016 35.195 18.735 34.486 19.1757 33.7803C19.6328 33.0541 20.0927 32.3524 20.6974 31.7467C21.8273 30.616 23.3131 30.0183 24.9951 30.0183C26.6761 30.0183 28.1615 30.6156 29.2914 31.7463C29.8966 32.352 30.3565 33.0537 30.813 33.7791C31.2498 34.4784 31.6793 35.181 32.1014 35.8867L32.2787 36.1816C36.4038 43.0193 40.3539 49.9331 44.1262 56.918L44.1596 56.9802C44.581 57.7545 44.9948 58.5317 45.4009 59.3119C45.6807 59.853 45.9064 60.3081 46.0987 60.77C46.6211 62.0281 46.773 63.1604 46.5765 64.3341V64.3345ZM137.853 46.8127C137.853 33.5301 139.844 21.3815 143.352 13.1203C145.722 7.36991 148.756 3.07762 152.738 3.07762C156.246 3.07762 158.236 6.56013 158.236 12.1486C158.236 19.2759 155.392 27.6986 150.747 36.041C147.333 42.1958 142.877 48.1892 138.042 53.6158C137.948 51.5102 137.853 49.2424 137.853 46.8127ZM117.468 73.2155C123.442 70.3809 129.509 66.007 135.103 60.6624C136.81 69.8948 140.413 72.8917 144.679 72.8917C149.42 72.8917 153.97 69.1658 157.952 62.4442V63.7396C157.952 70.7046 161.65 72.8917 164.968 72.8917C169.898 72.8917 174.734 68.1941 178.621 60.5001C178.526 61.877 178.526 62.5245 178.526 63.4158C178.526 70.462 181.56 72.5676 185.068 72.5676C188.292 72.5676 190.946 70.6235 193.79 66.5742C194.454 65.6025 193.601 64.3063 192.274 64.3063C191.61 64.3063 190.946 64.6305 190.662 65.1165C188.955 67.7081 187.344 69.4899 185.353 69.4899C182.603 69.4899 182.319 66.0878 182.319 63.4158C182.319 59.528 182.895 53.1844 183.741 49.4043C183.967 48.394 183.077 47.5417 181.939 47.5417C180.991 47.5417 180.233 48.1081 180.043 48.7564C176.44 59.9333 170.847 69.8141 165.537 69.8141C162.883 69.8141 161.745 67.1414 161.745 63.6588C161.745 59.6903 162.693 54.9116 164.399 49.5661C164.684 48.5941 163.831 47.6224 162.598 47.6224C161.84 47.6224 160.986 48.0277 160.796 48.6752C156.531 60.8238 150.557 69.8141 145.153 69.8141C141.266 69.8141 139.275 65.2784 138.422 58.0704C144.584 51.834 150.083 44.6259 154.16 37.3364C158.995 28.5088 162.029 19.5997 162.029 12.1486C162.029 2.67274 157.289 0 152.927 0C147.808 0 143.067 4.13041 139.749 11.9867C136.241 20.5717 134.06 33.0441 134.06 46.8127C134.06 50.5382 134.25 53.7777 134.534 56.6123C128.656 62.3626 122.209 67.3032 115.762 70.462C114.909 70.8669 114.53 71.8389 115.003 72.5676C115.477 73.2966 116.615 73.6204 117.468 73.2155ZM85.3276 95.7309C86.3706 95.7309 87.319 95.0018 87.319 94.1109C87.319 86.984 87.698 79.8567 88.5509 72.8917C105.807 71.5959 125.622 57.5036 125.622 42.8441C125.622 32.7203 117.089 26.97 105.807 26.97C94.8085 26.97 80.8714 32.8822 69.3042 42.6822C68.5462 43.2486 68.5462 44.3018 69.3042 44.9497C69.9686 45.5976 71.201 45.5976 71.9595 44.9497C82.7678 35.9602 95.5675 30.2095 105.712 30.2095C114.814 30.2095 121.64 34.8259 121.64 42.8441C121.64 55.8021 104.289 68.1937 88.9304 69.5711C90.3523 59.285 92.6282 49.3235 95.757 40.5763C96.041 39.7665 95.3775 38.7944 94.4295 38.551C93.3866 38.3088 92.2492 38.7944 91.9642 39.6042C88.8354 48.6752 86.4655 58.9609 84.9482 69.733C81.2509 69.5711 78.0271 68.7609 74.4248 66.9795C73.4764 66.5742 72.339 66.8983 71.7695 67.6274C71.2955 68.4372 71.6755 69.4092 72.5284 69.8948C76.7947 71.7574 80.4924 72.7294 84.5692 72.9725C83.8107 79.9375 83.3363 87.0648 83.3363 94.1109C83.3363 95.0018 84.2847 95.7309 85.3276 95.7309ZM214.269 51.2668C215.028 51.7528 216.261 51.6717 216.829 51.0242C219.389 48.2707 220.906 45.3546 220.906 42.8441C220.906 39.1186 217.967 36.77 212.563 36.77C202.134 36.77 192.084 45.8406 192.084 52.806C192.084 57.2606 195.687 60.2571 202.893 61.391L207.348 62.0389C211.994 62.6868 215.123 64.0633 215.123 66.8172C215.123 69.8141 211.236 71.4336 207.159 71.4336C204.125 71.4336 201.47 70.5427 199.384 69.3281C198.626 68.842 197.488 69.0039 196.919 69.6518C196.351 70.2997 196.54 71.2718 197.298 71.7574C199.953 73.4585 203.367 74.5113 207.159 74.5113C213.89 74.5113 218.916 71.2718 218.916 66.6553C218.916 62.9298 215.597 60.0948 207.917 58.9613L203.461 58.313C198.91 57.6651 195.877 55.9648 195.877 52.7249C195.877 47.1364 204.22 39.8472 212.468 39.8472C215.313 39.8472 217.114 40.9004 217.114 43.0871C217.114 44.7878 215.976 46.9749 213.985 49.0801C213.416 49.7284 213.511 50.7001 214.269 51.2668Z" fill="#484848"/>
</svg>
