<svg width="19" height="21" viewBox="0 0 19 21" fill="none" xmlns="http://www.w3.org/2000/svg">
<path d="M9.48529 15.4708C8.41429 14.1268 7.78429 12.9487 7.57429 11.9407C7.36429 11.1217 7.44829 10.4707 7.80529 9.98771C8.18329 9.42071 8.75029 9.14771 9.48529 9.14771C10.2203 9.14771 10.7873 9.42071 11.1653 9.98771C11.5223 10.4707 11.6063 11.1217 11.3963 11.9407C11.1653 12.9697 10.5353 14.1457 9.48529 15.4708ZM17.0915 16.3738C16.9445 17.3608 16.2725 18.1798 15.3485 18.5788C13.5635 19.3558 11.7974 18.1168 10.2854 16.4368C12.7865 13.3057 13.2485 10.8697 12.1754 9.29261C11.5454 8.38961 10.6424 7.94861 9.48529 7.94861C7.15429 7.94861 5.87119 9.92261 6.37519 12.2137C6.66919 13.4527 7.44619 14.8618 8.68519 16.4368C7.90819 17.2978 7.17319 17.9068 6.52219 18.2848C6.01819 18.5578 5.53519 18.7258 5.07319 18.7678C2.95219 19.0828 1.2911 17.0248 2.04709 14.9017C2.15209 14.6287 2.36209 14.1247 2.71909 13.3477L2.74009 13.3057C3.89509 10.7836 5.30419 7.92761 6.92119 4.75451L6.96319 4.64951L7.42519 3.76751C7.78219 3.11651 7.92919 2.82251 8.49619 2.46551C8.76919 2.29751 9.10519 2.21351 9.48319 2.21351C10.2392 2.21351 10.8272 2.65451 11.0792 3.01151C11.2052 3.20051 11.3522 3.45251 11.5412 3.76751L11.9822 4.62851L12.0452 4.75451C13.6622 7.92761 15.0713 10.7836 16.2263 13.3057L16.2473 13.3267L16.6673 14.2927L16.9193 14.9017C17.1125 15.3868 17.1545 15.8698 17.0915 16.3738ZM18.0575 14.4817C17.9105 14.0197 17.6585 13.4737 17.3435 12.8227V12.8017C15.8525 9.62861 14.4644 6.77261 13.1414 4.20851L13.0574 4.08251C12.1124 2.15051 11.4404 0.993408 9.48529 0.993408C7.55329 0.993408 6.73219 2.33741 5.89219 4.08251L5.82919 4.20851C4.50619 6.77261 3.11809 9.62861 1.62709 12.8017V12.8437L1.1861 13.8097C1.0181 14.2087 0.934096 14.4187 0.913096 14.4817C-0.157904 17.4238 2.04709 20.0068 4.71619 20.0068C4.73719 20.0068 4.82119 20.0068 4.92619 19.9858H5.22019C6.60619 19.8178 8.03629 18.9358 9.48529 17.3587C10.9343 18.9337 12.3644 19.8178 13.7504 19.9858H14.0444C14.1494 20.0068 14.2334 20.0068 14.2544 20.0068C16.9235 20.0089 19.1285 17.4238 18.0575 14.4817Z" fill="#767676"/>
</svg>
